<svg xmlns="http://www.w3.org/2000/svg" version="1.1" xmlns:xlink="http://www.w3.org/1999/xlink" xmlns:svgjs="http://svgjs.dev/svgjs" width="1500" height="1500" viewBox="0 0 1500 1500"><rect width="1500" height="1500" fill="#ffffff"></rect><g transform="matrix(0.6666666666666666,0,0,0.6666666666666666,249.39393939393932,708.4376679325871)"><svg viewBox="0 0 396 33" data-background-color="#046380" preserveAspectRatio="xMidYMid meet" height="125" width="1500" xmlns="http://www.w3.org/2000/svg" xmlns:xlink="http://www.w3.org/1999/xlink"><g id="tight-bounds" transform="matrix(1,0,0,1,0.24000000000003752,-0.04131650130446474)"><svg viewBox="0 0 395.5199999999999 33.08263300260893" height="33.08263300260893" width="395.5199999999999"><g><svg viewBox="0 0 461.7172654839427 38.619596594289625" height="33.08263300260893" width="395.5199999999999"><g transform="matrix(1,0,0,1,66.1972654839427,0.6799880731749042)"><svg viewBox="0 0 395.52 37.25962044793982" height="37.25962044793982" width="395.52"><g id="textblocktransform"><svg viewBox="0 0 395.52 37.25962044793982" height="37.25962044793982" width="395.52" id="textblock"><g><svg viewBox="0 0 395.52 37.25962044793982" height="37.25962044793982" width="395.52"><g transform="matrix(1,0,0,1,0,0)"><svg width="395.52" viewBox="-11.9 -26.95 292.42999999999995 27.55" height="37.25962044793982" data-palette-color="#ffffff"><path d="M9-0.15L-11.9-2.4 9.7-2.4 9-0.15ZM-8.05-21.65L13.5-21.65Q13.2-20.85 12.85-19.4L12.85-19.4-8.05-21.65ZM12.25-15L12.25-15 12.25-14.6-8.95-16.85 12.35-16.85Q12.25-15.65 12.25-15ZM11.3-7.25L10.6-5.05-10.25-7.25 11.3-7.25ZM-4.6-26.45L16.95-26.45Q15.6-25.45 14.9-24.35L14.9-24.35-4.6-26.45ZM-7-12.05L12.7-12.05Q13.15-10.75 14.15-9.8L14.15-9.8-7-12.05ZM35.05-25.9L32.65-18.6Q29.25-19.4 26.85-19.4 24.45-19.4 23.3-19.25L23.3-19.25 23.05-17.8 25.55-17.5Q33.6-16.45 33.6-10.85L33.6-10.85Q33.6-10.2 33.3-8.43 33-6.65 32.3-5 31.6-3.35 30.53-2.33 29.45-1.3 28.43-0.68 27.4-0.05 25.8 0.2L25.8 0.2Q23.3 0.6 19.13 0.6 14.95 0.6 10.7-0.55L10.7-0.55 13.15-7.95Q17.05-6.85 19.98-6.85 22.9-6.85 24.1-7L24.1-7 24.35-8.6 21.2-8.95Q17.15-9.4 15.45-10.85 13.75-12.3 13.75-15L13.75-15Q13.75-16 14-17.5L14-17.5Q15-22.85 17.6-24.9 20.2-26.95 25.53-26.95 30.85-26.95 35.05-25.9L35.05-25.9ZM46.55-12.05L46.15-9.8 24.95-12.05 46.55-12.05ZM47.4-16.85L47-14.6 25.8-16.85 47.4-16.85ZM48.25-21.65L47.85-19.4 26.65-21.65 48.25-21.65ZM49.05-26.45L48.7-24.2 27.5-26.45 49.05-26.45ZM24.8-7.25L45.95-7.25 45.95-6.25Q45.95-5.4 46-5L46-5 24.8-7.25ZM47.9-0.15L47.9-0.15 26.7-2.4 46.45-2.4Q47-1 47.9-0.15ZM55.65-7L58.15-7Q59.5-7 60.02-7.33 60.55-7.65 60.75-8.9L60.75-8.9 63.9-26.45 72.3-26.45 69.7-11.55Q68.5-4.55 65.82-1.98 63.15 0.6 56.7 0.6L56.7 0.6Q51.55 0.6 49.5-0.93 47.45-2.45 47.45-6.25L47.45-6.25Q47.45-8.35 48-11.55L48-11.55 50.65-26.45 59.05-26.45 55.65-7ZM104.75 0L97.95 0 92.8-9.9 92.59-9.9 90.84 0 82.45 0 87.05-26.45 93.84-26.45 99.05-16.6 99.34-16.6 101.05-26.45 109.4-26.45 104.75 0ZM81.2-2.4L80.8-0.15 59.6-2.4 81.2-2.4ZM82.9-12.05L82.5-9.8 61.3-12.05 82.9-12.05ZM83.75-16.85L83.34-14.6 62.15-16.85 83.75-16.85ZM84.59-21.65L84.2-19.4 63-21.65 84.59-21.65ZM85.4-26.45L85.05-24.2 63.85-26.45 85.4-26.45ZM82.05-7.25L81.65-5 60.45-7.25 82.05-7.25ZM138.44-8.05L137.64-0.55Q134.94 0.6 130.14 0.6 125.34 0.6 123.07-1.43 120.79-3.45 120.79-7.8L120.79-7.8Q120.79-9.75 121.39-13.2L121.39-13.2Q122.64-20.45 125.72-23.7 128.79-26.95 135.54-26.95L135.54-26.95Q140.39-26.95 142.19-25.85L142.19-25.85 139.64-18.9Q137.14-19.6 135.09-19.6 133.04-19.6 132.22-19.25 131.39-18.9 131.19-17.9L131.19-17.9 129.24-7.2Q130.29-6.95 132.87-6.95 135.44-6.95 138.44-8.05L138.44-8.05ZM99.69-12.05L119.64-12.05Q119.44-10.5 119.39-9.95L119.39-9.95 99.69-12.05ZM100.59-16.85L120.59-16.85 120.14-14.75 100.59-16.85ZM99.89-7.25L119.34-7.25Q119.34-6.45 119.54-5.15L119.54-5.15 99.89-7.25ZM102.59-21.65L122.34-21.65Q121.74-20.35 121.49-19.65L121.49-19.65 102.59-21.65ZM104.24-2.4L120.39-2.4Q120.99-1.2 121.69-0.55L121.69-0.55 104.24-2.4ZM109.29-26.45L126.69-26.45Q125.49-25.75 124.64-24.8L124.64-24.8 109.29-26.45ZM169.44-7.35L168.14 0 151.89 0 156.49-26.45 165.29-26.45 161.94-7.35 169.44-7.35ZM150.64-2.4L150.24-0.15 129.04-2.4 150.64-2.4ZM152.34-12.05L151.94-9.8 130.74-12.05 152.34-12.05ZM153.19-16.85L152.79-14.6 131.59-16.85 153.19-16.85ZM154.04-21.65L153.64-19.4 132.44-21.65 154.04-21.65ZM154.84-26.45L154.49-24.2 133.29-26.45 154.84-26.45ZM151.49-7.25L151.09-5 129.89-7.25 151.49-7.25ZM195.49-26.95L195.49-26.95Q200.89-26.95 203.19-24.88 205.49-22.8 205.49-18.4L205.49-18.4Q205.49-16.25 204.94-13.2L204.94-13.2Q203.69-6 200.54-2.7 197.39 0.6 190.64 0.6L190.64 0.6Q185.34 0.6 183.09-1.48 180.84-3.55 180.84-7.9L180.84-7.9Q180.84-10.15 181.39-13.2L181.39-13.2Q182.64-20.4 185.74-23.68 188.84-26.95 195.49-26.95ZM189.14-7L192.09-7Q193.54-7 194.26-7.35 194.99-7.7 195.24-8.9L195.24-8.9 197.14-19.35 194.09-19.35Q192.69-19.35 191.91-19 191.14-18.65 190.99-17.5L190.99-17.5 189.14-7ZM159.69-12.05L179.64-12.05Q179.44-10.5 179.39-9.95L179.39-9.95 159.69-12.05ZM160.59-16.85L180.59-16.85 180.14-14.75 160.59-16.85ZM159.89-7.25L179.34-7.25Q179.34-6.45 179.54-5.15L179.54-5.15 159.89-7.25ZM162.59-21.65L182.34-21.65Q181.74-20.35 181.49-19.65L181.49-19.65 162.59-21.65ZM164.24-2.4L180.39-2.4Q180.99-1.2 181.69-0.55L181.69-0.55 164.24-2.4ZM169.29-26.45L186.69-26.45Q185.49-25.75 184.64-24.8L184.64-24.8 169.29-26.45ZM218.64-12.05L218.24-9.8 197.04-12.05 218.64-12.05ZM219.49-16.85L219.09-14.6 197.89-16.85 219.49-16.85ZM220.34-21.65L219.94-19.4 198.74-21.65 220.34-21.65ZM221.14-26.45L220.79-24.2 199.59-26.45 221.14-26.45ZM196.89-7.25L218.04-7.25 218.04-6.25Q218.04-5.4 218.09-5L218.09-5 196.89-7.25ZM219.99-0.15L219.99-0.15 198.79-2.4 218.54-2.4Q219.09-1 219.99-0.15ZM227.74-7L230.24-7Q231.59-7 232.11-7.33 232.64-7.65 232.84-8.9L232.84-8.9 235.99-26.45 244.39-26.45 241.79-11.55Q240.59-4.55 237.91-1.98 235.24 0.6 228.79 0.6L228.79 0.6Q223.64 0.6 221.59-0.93 219.54-2.45 219.54-6.25L219.54-6.25Q219.54-8.35 220.09-11.55L220.09-11.55 222.74-26.45 231.14-26.45 227.74-7ZM259.13-26.45L270.38-26.45Q275.83-26.45 278.18-24.5 280.53-22.55 280.53-18.25L280.53-18.25Q280.53-16.2 279.98-13.2L279.98-13.2Q278.73-6.1 275.66-3.05 272.58 0 265.73 0L265.73 0 254.53 0 259.13-26.45ZM269.18-19.15L269.18-19.15 266.28-19.15 264.18-7.15 267.08-7.15Q268.53-7.15 269.31-7.53 270.08-7.9 270.28-9.05L270.28-9.05 271.73-17.3Q271.78-17.5 271.78-18.1L271.78-18.1Q271.78-19.15 269.18-19.15ZM253.28-2.4L252.88-0.15 231.68-2.4 253.28-2.4ZM254.98-12.05L254.58-9.8 233.38-12.05 254.98-12.05ZM255.83-16.85L255.43-14.6 234.23-16.85 255.83-16.85ZM256.68-21.65L256.28-19.4 235.08-21.65 256.68-21.65ZM257.48-26.45L257.13-24.2 235.93-26.45 257.48-26.45ZM254.13-7.25L253.73-5 232.53-7.25 254.13-7.25Z" opacity="1" transform="matrix(1,0,0,1,0,0)" fill="#000000" class="wordmark-text-0" data-fill-palette-color="primary" id="text-0"></path></svg></g></svg></g></svg></g></svg></g><g><svg viewBox="0 0 57.40116332707486 38.619596594289625" height="38.619596594289625" width="57.40116332707486"><g><svg xmlns="http://www.w3.org/2000/svg" xmlns:xlink="http://www.w3.org/1999/xlink" version="1.1" x="0" y="0" viewBox="2.0630000000000006 6.623999999999999 27.873000000000005 18.753" enable-background="new 0 0 32 32" xml:space="preserve" height="38.619596594289625" width="57.40116332707486" class="icon-icon-0" data-fill-palette-color="accent" id="icon-0"><path d="M8.063 25.377c-3.313 0-6-2.688-6-6l0 0c0.002-2.668 1.733-4.899 4.127-5.688l0 0c0.083-2.26 1.937-4.063 4.216-4.065l0 0c0.729 0 1.415 0.189 2.01 0.517l0 0c1.267-2.104 3.57-3.517 6.208-3.517l0 0c3.947 0.002 7.156 3.154 7.248 7.078l0 0c2.361 0.805 4.062 3.034 4.064 5.667l0 0c0 3.312-2.688 6-6 6l0 0H8.063V25.377zM24.665 15.451c-0.512-0.096-0.864-0.562-0.814-1.078l0 0c0.021-0.172 0.026-0.336 0.026-0.498l0 0c-0.007-2.898-2.353-5.244-5.251-5.248l0 0c-2.249-0.002-4.162 1.418-4.911 3.41l0 0c-0.122 0.322-0.405 0.563-0.748 0.629l0 0c-0.34 0.066-0.693-0.052-0.927-0.309l0 0c-0.416-0.453-0.985-0.73-1.633-0.73l0 0c-1.225 0.002-2.216 0.992-2.22 2.217l0 0c0 0.137 0.017 0.277 0.045 0.425l0 0c0.049 0.267-0.008 0.54-0.163 0.762l0 0c-0.155 0.224-0.393 0.371-0.657 0.414l0 0c-1.899 0.312-3.352 1.95-3.35 3.93l0 0c0.004 2.209 1.792 3.996 4.001 4.002l0 0h15.875c2.209-0.006 3.994-1.793 3.998-4.002l0 0C27.938 17.418 26.524 15.794 24.665 15.451L24.665 15.451" fill="#000000" data-fill-palette-color="accent"></path></svg></g></svg></g></svg></g><defs></defs></svg><rect width="395.5199999999999" height="33.08263300260893" fill="none" stroke="none" visibility="hidden"></rect></g></svg></g></svg>